<svg version="1.2" xmlns="http://www.w3.org/2000/svg" viewBox="-46.99999999999998 0 302 297" width="303" height="297">
	<title>voidloopquest-words-wip</title>
	<defs>
		<linearGradient id="g1" x2="1" gradientUnits="userSpaceOnUse" gradientTransform="matrix(3.097,23.922,-19.639,2.542,42.789,129.142)">
			<stop offset="0" stop-color="#ff00ff"/>
			<stop offset=".493" stop-color="#ff00ff"/>
			<stop offset=".493" stop-color="#923bff"/>
			<stop offset="1" stop-color="#923bff"/>
		</linearGradient>
		<linearGradient id="g2" x2="1" gradientUnits="userSpaceOnUse" gradientTransform="matrix(.26,9.173,-6.872,.195,20.689,136.201)">
			<stop offset="0" stop-color="#ff00ff"/>
			<stop offset=".504" stop-color="#ff00ff"/>
			<stop offset=".543" stop-color="#923bff"/>
			<stop offset="1" stop-color="#923bff"/>
		</linearGradient>
		<linearGradient id="g3" x2="1" gradientUnits="userSpaceOnUse" gradientTransform="matrix(-0.295,25.578,-4.411,-0.051,64.968,126.247)">
			<stop offset="0" stop-color="#ff00ff"/>
			<stop offset=".481" stop-color="#ff00ff"/>
			<stop offset=".481" stop-color="#923bff"/>
			<stop offset="1" stop-color="#923bff"/>
		</linearGradient>
		<linearGradient id="g4" x2="1" gradientUnits="userSpaceOnUse" gradientTransform="matrix(.781,31.228,-24.424,.611,82.95,121.66)">
			<stop offset="0" stop-color="#ff00ff"/>
			<stop offset=".475" stop-color="#ff00ff"/>
			<stop offset=".475" stop-color="#923bff"/>
			<stop offset="1" stop-color="#923bff"/>
		</linearGradient>
		<linearGradient id="g5" x2="1" gradientUnits="userSpaceOnUse" gradientTransform="matrix(-2.208,40.115,-23.755,-1.308,115.745,113.353)">
			<stop offset="0" stop-color="#ff00ff"/>
			<stop offset=".546" stop-color="#ff00ff"/>
			<stop offset=".546" stop-color="#923bff"/>
			<stop offset="1" stop-color="#923bff"/>
		</linearGradient>
		<linearGradient id="g6" x2="1" gradientUnits="userSpaceOnUse" gradientTransform="matrix(-0.536,29.407,-21.876,-0.399,145.299,121.292)">
			<stop offset="0" stop-color="#ff00ff"/>
			<stop offset=".487" stop-color="#ff00ff"/>
			<stop offset=".487" stop-color="#923bff"/>
			<stop offset="1" stop-color="#923bff"/>
		</linearGradient>
		<linearGradient id="g7" x2="1" gradientUnits="userSpaceOnUse" gradientTransform="matrix(.676,30.914,-21.877,.478,171.445,121.286)">
			<stop offset="0" stop-color="#ff00ff"/>
			<stop offset=".534" stop-color="#ff00ff"/>
			<stop offset=".534" stop-color="#923bff"/>
			<stop offset="1" stop-color="#923bff"/>
		</linearGradient>
		<linearGradient id="g8" x2="1" gradientUnits="userSpaceOnUse" gradientTransform="matrix(-3.802,37.539,-24.994,-2.531,197.673,121.02)">
			<stop offset="0" stop-color="#ff00ff"/>
			<stop offset=".46" stop-color="#ff00ff"/>
			<stop offset=".46" stop-color="#923bff"/>
			<stop offset="1" stop-color="#923bff"/>
		</linearGradient>
		<linearGradient id="g9" x2="1" gradientUnits="userSpaceOnUse" gradientTransform="matrix(.325,31.489,-27.377,.283,55.3,158.289)">
			<stop offset="0" stop-color="#80b3ff"/>
			<stop offset=".519" stop-color="#80b3ff"/>
			<stop offset=".519" stop-color="#0066ff"/>
			<stop offset="1" stop-color="#0066ff"/>
		</linearGradient>
		<linearGradient id="g10" x2="1" gradientUnits="userSpaceOnUse" gradientTransform="matrix(.092,-28.522,24.618,.079,84.923,187.143)">
			<stop offset="0" stop-color="#0066ff"/>
			<stop offset=".487" stop-color="#0066ff"/>
			<stop offset=".487" stop-color="#80b3ff"/>
			<stop offset="1" stop-color="#80b3ff"/>
		</linearGradient>
		<linearGradient id="g11" x2="1" gradientUnits="userSpaceOnUse" gradientTransform="matrix(-0.46,-28.89,24.905,-0.397,112.893,187.971)">
			<stop offset="0" stop-color="#0066ff"/>
			<stop offset=".496" stop-color="#0066ff"/>
			<stop offset=".496" stop-color="#80b3ff"/>
			<stop offset="1" stop-color="#80b3ff"/>
		</linearGradient>
		<linearGradient id="g12" x2="1" gradientUnits="userSpaceOnUse" gradientTransform="matrix(0,-29.074,25.198,0,141.415,188.063)">
			<stop offset="0" stop-color="#0066ff"/>
			<stop offset=".54" stop-color="#0066ff"/>
			<stop offset=".54" stop-color="#80b3ff"/>
			<stop offset="1" stop-color="#80b3ff"/>
		</linearGradient>
		<linearGradient id="g13" x2="1" gradientUnits="userSpaceOnUse" gradientTransform="matrix(1.564,-36.987,32.014,1.354,167.546,190.225)">
			<stop offset="0" stop-color="#0066ff"/>
			<stop offset=".51" stop-color="#0066ff"/>
			<stop offset=".51" stop-color="#80b3ff"/>
			<stop offset="1" stop-color="#80b3ff"/>
		</linearGradient>
	</defs>
	<style>
		.s0 { fill: #000000 } 
		.s1 { fill: #3200bc } 
		.s2 { fill: #ba00ba } 
		.s3 { fill: #ffffff } 
		.s4 { fill: url(#g1) } 
		.s5 { fill: url(#g2) } 
		.s6 { fill: #ff00ff } 
		.s7 { fill: url(#g3) } 
		.s8 { fill: url(#g4) } 
		.s9 { fill: url(#g5) } 
		.s10 { fill: url(#g6) } 
		.s11 { fill: url(#g7) } 
		.s12 { fill: url(#g8) } 
		.s13 { fill: #00112b } 
		.s14 { fill: #0044aa } 
		.s15 { fill: url(#g9) } 
		.s16 { fill: #0055d4 } 
		.s17 { fill: url(#g10) } 
		.s18 { fill: url(#g11) } 
		.s19 { fill: url(#g12) } 
		.s20 { fill: url(#g13) } 
	</style>
	<g id="layer1">
	</g>
	<g id="layer2">
		<path id="path22" class="s0" d="m33 146.5l-1.4 4.8 11.4 7.6 14-2.3 3.4-5.5v-3.3l-1.8 2.8-3.3 4.8-11.5 2.2-2.2-1.6-8.1-6.1-0.1-1z"/>
		<path id="path21" class="s0" d="m41.6 122.4l9.5-0.7 9.4 10.7v-3.6l-8.7-8.8-9.3 0.5z"/>
		<path id="path18" class="s1" d="m41.1 155.9l10.9-2.1 6.8-7.2 0.1-16.9 1.7 2.8-0.2 15.6-5.2 7.7-11 2z"/>
		<path id="path17" class="s2" d="m33.9 132l-1.8 8.7 1.5 9.5 8 6 10.5-2 7-7.5 0.1-16.6-6.7-7.6-1.6-1.1-9.5 0.7-5.2 5.1z"/>
		<path id="path16" class="s3" d="m34.3 148.7l6.9 5.8 10-1.4 6.9-6.9v-16l-7.6-8.1-8.5 0.7-5.2 4.8-2.1 3.6-1.6 9.2z"/>
		<path id="path11" class="s4" d="m35.1 147.7l6.7 5.6 8.5-1.2 6.6-6.7-0.1-14.8-6.9-7.4-7.3 0.8-5.1 5.3-1.6 2.6-1.5 9z"/>
		<path id="path10" class="s3" d="m38.8 144.9l4.7 3.7 4.8-0.7 4.2-3.8 0.3-10.9-5.6-5-7.7 4.3z"/>
		<path id="path12" class="s2" d="m39.7 144l4.5 3.4c0 0 3 1.4 4.4-0.7 1.2-1.3 3-2.5 3.4-3.9-0.3-3.3 0.6-4.3-1-9.6l-4.4-3.7-6 3.9z"/>
		<path id="path13" class="s1" d="m41.2 143.5l4.1 3.3 5.2-3.2 0.2-8.5-4.6-4.4-4.8 3.8z"/>
		<path id="path14" class="s0" d="m44.1 136.9l-0.9 7.9 2.1 1.9 1.4 0.9 4.4-4.1-0.2-8.7-2.2-1.6z"/>
		<path id="path5" class="s0" d="m-0.9 117.7l5.7 0.3 7.3-3.2 5.4 6.5 4 13.8 6.9-18.8 21-10.4 1.9 2 0.6 0.9 0.5 0.9-5.4 9.3-0.7 2-4.3 0.6c1.8-4.4 4.7-7.1 7.2-10.5l-1-1.7 1.1-2.2-20 10.2-8.4 23.6-4.8-19.7-4.9-5.4-5.8 3.4-4.6-0.3 13.3 33.4 0.9 2.4 2.6 3.9 1.1 2.7 3.2 4.4 1.7 1.9 0.7-2.2 2 1 6.6-21.3 0.5 3.7-5 15.6-1 3.1-2.7-0.7-0.8 3.4-5.6-7.3h-1.1l-0.4-3-2.8-3.7-1.1-3.9-3.8-9.6z"/>
		<path id="path9" class="s1" d="m34 131.6l7.6-9.4c2.5-4.1 6.1-8.9 9.3-13.2l-1.5-1.9-9.8 11.4c-3.8 4.9-4.1 8.8-5.6 13.1z"/>
		<path id="path8" class="s1" d="m22.9 168.8c1.6-7.2 3.3-18.2 6.3-25.7l5.7-14.7-2.6 10.9 0.7 6.7-6.2 21.1c-2.2-1.8-2.4-1.5-3.9 1.7z"/>
		<path id="path4" class="s1" d="m11.4 115.8l9 27.1 1-2.1-2-8.1-3.3-12z"/>
		<path id="path3" class="s2" d="m0.8 118.8l13.6 35.3 0.5 1.5 3 4.6 1.8 3.2 4 5.4 3.2-18.5 5.6-15.9 4-9.5 2.3-5.3 5.8-7.3 4.7-5-20.1 9.8-3.8 11.5c-1.6 4.6-3.3 8.6-4.8 13.7l-9-26.3c-1.1-0.8-4.5 2.1-6.7 3.2z"/>
		<path id="path2" class="s3" d="m2.9 120.5l6.9 17.8 5.6 14.5 0.7 2 2.8 3 1.4 3 1.4 1.7 0.8 1.6 4.3-16 3.5-10.4 4-10.6 4.7-9.9 7.2-7.3-16.3 8.2-5.1 15.2-4.4 11.7-4.1-10.7-5.2-16.9-6.2 2.9z"/>
		<path id="path1" class="s5" d="m4.7 122.1l12.3 31.2 3.6 5.1 1.3 2.8 3.7-13.3 3.5-11.1 4.9-12.4 4.8-9.4-8 4.2-4.6 13.1-5.8 16.1-5.3-12.8-0.9 0.2 0.5-1.3-4.6-15.2z"/>
		<path id="path31" class="s0" d="m61.5 124.4l-2.6-3-0.7-7.3 9.2-6.6-0.4 1-7.6 5.9 0.8 6.7 1.7 2.5z"/>
		<path id="path30" class="s1" d="m63.6 124.1l5-5.4 2.2-5.8 1.9 3.6-2.6 5.3z"/>
		<path id="path29" class="s2" d="m62.1 124.7l-2-4.6-1-6.2 8-6 1.8 0.4 2.1 4.3-0.9 4.5-2.4 2.2-4.6 5.3z"/>
		<path id="path28" class="s3" d="m63 122.9l-2-3.6-0.5-4.7 7.3-5.7 1.5 2.8-0.3 4.2z"/>
		<path id="path27" class="s6" d="m62.7 120.4l-1.2-4.8 5.6-4.6 1.1 3.1-1.6 3.6z"/>
		<path id="path26" class="s1" d="m60.1 154.8l3.3 2.5 3.7-1 2.9 1.5-0.4-1-5-3.3z"/>
		<path id="path25" class="s2" d="m60.4 126l-0.4 29 4.8-1.3 4.9 3.4-0.3-35.7z"/>
		<path id="path24" class="s3" d="m61.4 126.1l-0.2 27.5 3.5-1.3 3.4 2 0.1-31.4z"/>
		<path id="path23" class="s7" d="m62.4 127.3l0.1 24.5 2.8-0.6 1.6 1.2-0.1-27.7z"/>
		<path id="path90" class="s2" d="m70.5 156.5l3.3-1.5 15.2-1.2 8.8-8.7 1.1-12.2-2.9-8.4-8.8-5.3-14.3 0.5-1.9 4-0.5 5.6-0.2 1.5h1.9l-0.2 17.1-1.3 1.3z"/>
		<path id="path91" class="s3" d="m71.3 154.1l16.9-1.7 8.7-8.6 0.4-9.3-2.1-7.9-8-5.9h-13.9l-1.9 5.1-0.1 3.1h1.4l0.2 19-0.7 1.2z"/>
		<path id="path32" class="s8" d="m72.5 127.8l1.3-5.7 12.7-0.4 8.1 5.9 2 7.6-0.8 9-8 7.3-15 1.6 0.7-4.6 0.9-0.1-0.7-0.6 0.7-19.8-1.7 0.4z"/>
		<path id="path33" class="s3" d="m78.1 127.6l-0.3 19-0.5 0.6 9.1-1 5.7-5.4-0.6-9.4-6.4-4.3z"/>
		<path id="path34" class="s2" d="m79.1 145.3l0.2-17 5.6-0.1 5.4 3.8 0.5 8.9-5 4.1z"/>
		<path id="path89" class="s1" d="m71.8 157.7l18.9-2.5 8.6-7.6 0.6-11-1.1-3.8-1.1 12.3-9.1 8.5c-5.5 0.6-13.6 0.3-17.4 2.1l-0.9 1.2z"/>
		<path id="path35" class="s1" d="m80.2 144.4l0.4-14.4h4.8l4.3 3v2.3l-3.6-2.6-3.7 0.3-0.4 11.9z"/>
		<path id="path36" class="s0" d="m82.4 132.8l-0.3 11.8 3.6-0.6 4-3.4v-6.1l-3.8-2.1z"/>
		<path id="path37" class="s2" d="m107.5 157.1l0.6-10.3 0.9-2.1 0.9-29.5 13.7-8.5-5.7 38.3 15.9-1.6 3.5 9.2-1.5 1-22.3 1.7z"/>
		<path id="path38" class="s1" d="m107.6 157l4.9 0.3 23.4-2.5 0.9-1.8-21.1 1.6z"/>
		<path id="path40" class="s3" d="m109 155.2l1.9-39.5 10-6.1-4.2 36.5 16.5-1.5 2.6 6.9-22.7 2.4z"/>
		<path id="path39" class="s9" d="m110.2 153.7l24.3-3.1-2.6-5.2-16.6 1.9 3.7-34.6-7.2 4.1z"/>
		<path id="path41" class="s1" d="m131.8 127.9l-2.2 6.2 0.6 8.9 0.5 0.5 2.3-0.2-1.3-2.5z"/>
		<path id="path42" class="s1" d="m136.6 150.2l0.4 3.5 1.5 1.1 10.1 0.4 2.1-2.3-11.4-0.4z"/>
		<path id="path43" class="s2" d="m132.5 128.3l-0.7 13.1 1.1 1.9 3.2 6.4 3.4 2.8 11.2 0.6 7.1-7.4 0.1-16.9-7.2-8.5-9.3-0.8z"/>
		<path id="path44" class="s3" d="m133.2 128.5l-0.2 12.6 3.4 6.9 3.8 3.8 9.6 0.1 7.2-6.3-0.3-16.8-6.5-7.4-8.7-0.7z"/>
		<path id="path45" class="s10" d="m134.7 128.7l-0.5 7.8v4.5l3.9 6.6 2.6 3 8.9 0.3 6.4-6.3-0.4-15-5.8-7.5-8.3-0.7z"/>
		<path id="path46" class="s3" d="m137.8 140.5l1-10.7 5.1-3.5 3.1 0.1 4.6 4.4 0.5 10-4.2 4.8-5.2 0.1z"/>
		<path id="path47" class="s1" d="m143.1 144.3l-4.3-3.8 0.9-9.8 3.6-3.1 3.8-0.1 3.5 4.1 0.1 8.8-3.8 4.2z"/>
		<path id="path48" class="s0" d="m145 144.1l-5.7-4 0.9-6.2 4.3-2.7 3.7 4 0.3 6.2z"/>
		<path id="path49" class="s1" d="m149.8 139.7l0.1-8.1-3.9-3.2-5.1 3.2-0.5 1.9 4.1-1.6 3.5 3.1 0.5 6.7z"/>
		<path id="path50" class="s1" d="m157.3 129.1l-0.5 17.5 5.5 8.9 11.9 0.1 1.8-2.3-11.8-1.3-5.5-6.8 0.3-16.4z"/>
		<path id="path51" class="s6" d="m158.9 127.3l8.6-8.1 9.6 1.3 6.1 8.2 0.7 18.3-6.8 6.7-11.8-0.4-6-8z"/>
		<path id="path52" class="s3" d="m165.8 151.6l-5.9-7.4 0.4-16.7 7.7-6.8 8.6 1.1 6.5 7.9 0.5 16.3-6.9 6.9z"/>
		<path id="path53" class="s11" d="m166.2 150.5l-4.9-6.3-0.3-16.2 7.9-6.3 7.3 0.6 6 7.8 0.2 14.9-6.7 6.5z"/>
		<path id="path54" class="s3" d="m173.8 146.3l-5.4-0.2-3.9-3.6 0.2-11.5 6.7-4.5 2 0.2 4.2 4.3 0.7 11.5z"/>
		<path id="path55" class="s0" d="m173.1 145l-4.6 0.2-3.1-3.5 0.5-9.5 5.2-4.3 2-0.1 4.4 4.4-0.3 9.8z"/>
		<path id="path56" class="s1" d="m174 144.4l-0.4-9.3-6.6-3.7 3.9-3.6c3-1.1 5.4 3.2 6.6 4.4l-0.2 9.7z"/>
		<path id="path59" class="s1" d="m182.4 156.2l0.5-8.9 1.2-0.7 0.1-16.4 2.6-0.9-1.8 26.3z"/>
		<path id="path60" class="s1" d="m182.4 126.3l1.7-3.7 3.1-2.3-3.7 7.5z"/>
		<path id="path61" class="s2" d="m184.6 129.9l-1.2-1.7 3.5-7.7 4.6-2 10.5 1.1 10.4 8.1-0.3 11.5-8.9 6-8 1.2-1.4 10.4-9.2 6 4.2-8.5-4.7 1.8 2.7-27.5z"/>
		<path id="path62" class="s3" d="m187.8 127.8l-3.6 0.9 4.2-7.6 2.9-1.6 10.3 1.7 9.6 7.3-0.1 9.8-9 5.2-8.5 0.2-0.5 12-7.4 4.4 0.6-7 0.7-12.9 1-1.4 0.4-11.3z"/>
		<path id="path63" class="s12" d="m187 157.3l1-17.6 0.9-0.4 0.6-12.7-3.2 0.1 1.8-3.6 2.6-2.1 10.4 1.2 8.7 6.3 0.1 9.4-7.5 4.2-9.3 0.6-1.3 12.1-4.6 3z"/>
		<path id="path64" class="s3" d="m194.1 127.3l7.4 0.3 4.1 3.5-0.1 3.9-4.2 2.9-8-0.2z"/>
		<path id="path65" class="s2" d="m194.3 136.3l0.8-8 6.4 0.3 2.9 2.9 0.3 2.8-3.9 2.6z"/>
		<path id="path66" class="s0" d="m198.8 135.8l-3.4-0.2 0.6-3.6 2.7 1.1 1.6 1.8z"/>
		<path id="path67" class="s1" d="m200.8 134.7l-5-2.6 0.3-2.4 3 0.2 4.3 3.2z"/>
		<path id="path68" class="s13" d="m69.8 202.4l-9.6-7.2-12.8-0.9-9.3-9.6 0.3-19 8.6-7.4 2-1.2h13.3l3.4 1.3 4.2 4.8 0.8 3v18.4l0.1 3 9.5 8.1-0.6 1.7-5.1 1.5z"/>
		<path id="path69" class="s14" d="m69.5 200.6l-8.5-7.2-13.3-0.6-8.2-7.8 0.4-19.6 8-7.1 14.6-0.6 7.2 7.7 0.5 18.8-1.3 2.8 9.8 8.4-4.7 1.4z"/>
		<path id="path70" class="s3" d="m69.5 199l-8-7.3-13.8-0.9-7.3-7.8 0.8-17 7.6-7.3h13.1l6.5 7.1 0.3 16.4-1.9 3 9 8.7-3 1z"/>
		<path id="path71" class="s15" d="m68.7 195.8l-6.1-6h-14.3l-7.4-7.6 0.5-15.9 8.2-7 12.1 0.4 5.2 6.5-0.3 15.3-1.3 2.6-0.6 0.9 8.2 8.2z"/>
		<path id="path72" class="s3" d="m58.9 184.6l-8.7 0.2-3.4-3.5v-10.8-2.5l4.9-2.8 6.7-0.3 3.6 3 0.5 10-1.1 1.7 13.9 13.8-2 1.3-15.2-16-2.2 1.3z"/>
		<path id="path73" class="s16" d="m55.9 182.9h-4.8l-3.3-3.3 0.3-10.5 3.7-3.1h5.8l3.4 2.9 0.3 8.3-0.5 1.1-2.4-1.9-4.9 2.7z"/>
		<path id="path74" class="s0" d="m53.7 182.2h-2.2l0.4-11.4 2.5-1.6 5.4-0.5 0.8 8.3-2.2-1.1-5.2 3.1-0.4 0.9z"/>
		<path id="path75" class="s14" d="m70.8 158.8v24.9l7.5 7.2 14.8-0.3 6.2-5.8-0.7-23.1 3.9-7.3-12.8 5.6-0.3 18.5-2.2 2.2-4.5-0.1-1-2.3 1.2-17.8-1.9-0.4-0.5-2.4z"/>
		<path id="path76" class="s3" d="m78.3 188.4l13.8-0.1 5.2-5.1 0.4-21.5 3.5-6.5-11 5.4 0.2 17.8-3.1 3-5.8-0.1-2.8-3 1.1-19.3-8 0.6 0.1 22.3z"/>
		<path id="path77" class="s17" d="m79.1 187.7l11-0.5 5.7-5.5 0.3-19.3 1.1-2.7-5.5 2.9 0.2 16.1-3.5 4h-7.5l-3.2-3.1 0.6-18.8-5.3 0.8 0.1 20.6z"/>
		<path id="path78" class="s14" d="m99.9 162.9v22.5l5.4 4.5h20.2l1.1-2-0.1-8.3-18.1 1-0.2-2.4 14.3 0.5 2.4-8.8-16.5-1.2v-0.7l16.4-0.3 5-11.1-5.3 1.6-17 0.1z"/>
		<path id="path79" class="s3" d="m100.9 184l-0.1-21.1 6.3-3.8 18.3-0.6 3.4-0.9-4.5 8.3-16.2 0.2-0.2 3.8 15.1 0.3-1.6 6.7-13.4 0.2-0.4 3.6 1.2 0.6 17-0.8v7.5l-20.2 0.2z"/>
		<path id="path80" class="s18" d="m106.3 187l-4.3-3.5 0.2-19.7 5.3-3.8 17.6-0.5-1.9 5.7-15.7-0.3-1.3 0.9v5.3l15.2-0.2-1.1 4.8h-13.8l-0.5 5.4 1.7 0.8 16.1 0.1 1.1 4.8z"/>
		<path id="path81" class="s14" d="m125.6 191l22.1-1.1 6.9-7.1 0.6-9-4.5-3.8-14.2-0.7-1.2-1.7h14.7l3.7-5.1 1.2-5.3-4.1 1.1-16.5-0.1-7.7 6.8v9.4l5.3 3.8 14.7 0.1 0.6 0.4-2.5 1.1-15.2 0.5z"/>
		<path id="path82" class="s3" d="m126.9 189.4l4.3-1.3 15.6-0.4 6.9-5.9v-7.5l-4.4-3.8-13.2-0.4-1.7-2.6 2.5-1.6 13-0.1 4.1-7.2-19.1 0.8-7.5 5.7 0.3 7.7 5.4 3.9 13.7-0.4 1.2 1.8-3.1 2.5-14.5-0.1z"/>
		<path id="path83" class="s19" d="m129 187.3l2.9-5.3 13.2-0.3 4.3-2.7-0.2-2.3-2-1.4-13.3-0.4-4.7-2.8-0.7-7 6.7-5.2 16.2-0.2-2.2 4.8-13.1 0.7-2.8 2.3v1.3l2.1 2 14.1 0.9 3 3.1-0.1 7-5.6 4.9z"/>
		<path id="path84" class="s14" d="m155.8 158.1l-4.2 10.4 10.1 0.3-0.4 25.6 10.9-5.3 0.3-20.4 4.3-0.2 2.9 1.7 8-14-8.3 1.7-21.4 0.1z"/>
		<path id="path85" class="s3" d="m156 158.1l-2.7 8.6 10.7-0.5-1 26 7.9-4.2 0.7-22.5 8.2-0.3 6-8.2-5.8 1.4-22.4 0.1z"/>
		<path id="path86" class="s20" d="m165.4 164.1l-9.6 0.6 1.6-4.8 24.8-0.6-2.3 5.2-9.6 0.1-0.6 21.8-4.3 2.4z"/>
		<path id="path111" class="s0" d="m183 163.8l-0.8 2.3 13.4-8.4 1.1-10.1 8.1-1.7 8.5-5.9 1.3-12.5-11.3-9.4-13.4-1.4-7.4 4.4-1.6 4.4 5.2-4.4 0.7-0.5 5.1-1.7 7.8 0.6 3.7 1.5 4.5 3.8 4.5 3.1-0.5 11.4-10.8 6.1-6.2 0.7-1.5 10.7z"/>
	</g>
</svg>